Coordinates
version=1
nRows=11
nColumns=63
inDegrees=yes

Units are S.I. units (second, meters, Newtons, ...)
If the header above contains a line with 'inDegrees', this indicates whether rotational values are in degrees (yes) or radians (no).

endheader
time	pelvis_tilt	pelvis_list	pelvis_rotation	pelvis_tx	pelvis_ty	pelvis_tz	hip_flexion_r	hip_adduction_r	hip_rotation_r	knee_angle_r	knee_angle_r_beta	ankle_angle_r	subtalar_angle_r	mtp_angle_r	hip_flexion_l	hip_adduction_l	hip_rotation_l	knee_angle_l	knee_angle_l_beta	ankle_angle_l	subtalar_angle_l	mtp_angle_l	L5_S1_Flex_Ext	L5_S1_Lat_Bending	L5_S1_axial_rotation	L4_L5_Flex_Ext	L4_L5_Lat_Bending	L4_L5_axial_rotation	L3_L4_Flex_Ext	L3_L4_Lat_Bending	L3_L4_axial_rotation	L2_L3_Flex_Ext	L2_L3_Lat_Bending	L2_L3_axial_rotation	L1_L2_Flex_Ext	L1_L2_Lat_Bending	L1_L2_axial_rotation	L1_T12_Flex_Ext	L1_T12_Lat_Bending	L1_T12_axial_rotation	Abs_r3	Abs_r2	Abs_r1	Abs_t1	Abs_t2	neck_flexion	neck_bending	neck_rotation	arm_flex_r	arm_add_r	arm_rot_r	elbow_flex_r	pro_sup_r	wrist_flex_r	wrist_dev_r	arm_flex_l	arm_add_l	arm_rot_l	elbow_flex_l	pro_sup_l	wrist_flex_l	wrist_dev_l
      3.01818182	      2.36431515	     -3.49811079	     97.21297895	      0.16908031	      0.49287854	      1.00771951	      6.13093213	      2.23126029	    -12.15790124	      5.51953225	      0.09633401	     31.29863838	     14.78367445	      0.00000000	      6.79347416	     -1.40300454	     14.51649963	      5.92608751	      0.10342974	     26.03275915	    -13.69756247	      0.00000000	     -0.07464623	      0.27488255	      0.85420412	     -0.13862552	      0.36559379	      0.90759188	     -0.12263630	      0.66834943	      0.90759188	     -0.08531318	      0.66834943	      0.74742861	     -0.06931649	      0.56054050	      0.69404085	     -0.04265286	      0.42579307	      0.64065309	     -0.53319059	      3.10952638	      4.75082708	      0.00000000	      0.00000000	     13.72009418	     -2.70066289	     -2.67280620	      0.93332067	    -23.96798273	     19.01903144	     48.63587920	     71.92644561	      1.27704061	     -3.12418797	     23.19125197	     -6.48609124	    160.04431518	      0.17566078	      2.08898512	    -60.10258013	    -23.74043107
      3.03636364	      2.23782084	     -3.55219955	     97.51937132	      0.16873654	      0.49172598	      1.00662249	      5.98609052	      2.05373229	    -12.62842974	      5.52468477	      0.09642394	     31.30262077	     14.69791911	      0.00000000	      6.77987553	     -1.23988786	     15.26467078	      5.87890772	      0.10260630	     26.14052392	    -14.03416074	      0.00000000	     -0.06844534	      0.26660745	      0.72934965	     -0.12710984	      0.35458791	      0.77493400	     -0.11244885	      0.64822936	      0.77493400	     -0.07822618	      0.64822936	      0.63818094	     -0.06355834	      0.54366592	      0.59259659	     -0.03910967	      0.41297495	      0.54701224	     -0.48889822	      3.01591684	      4.05642394	      0.00000000	      0.00000000	     14.14243933	     -2.72028161	     -1.79161645	      2.15040960	    -23.40892251	     21.87095841	     45.62002802	     73.19014699	     -0.23377881	     -4.46885611	     22.25331530	     -6.62407025	    158.54983939	      0.19166679	      1.99174356	    -53.48737358	    -23.82355909
      3.05454545	      2.05382083	     -3.50210504	     97.73425719	      0.16835078	      0.49065435	      1.00534193	      5.69930205	      1.84302038	    -12.96895346	      5.49375928	      0.09588419	     31.23197030	     14.58329854	      0.00000000	      6.57670164	     -1.04188270	     15.95885256	      5.73028545	      0.10001235	     26.25637393	    -14.40273102	      0.00000000	     -0.07024854	      0.26156409	      0.63154037	     -0.13045856	      0.34788023	      0.67101164	     -0.11541132	      0.63596692	      0.67101164	     -0.08028705	      0.63596692	      0.55259782	     -0.06523279	      0.53338148	      0.51312655	     -0.04014002	      0.40516277	      0.47365528	     -0.50177829	      2.95886525	      3.51243808	      0.00000000	      0.00000000	     14.40301040	     -2.70065141	     -0.56968666	      3.51898208	    -23.09851205	     25.49856760	     42.61858468	     76.75581320	     -2.59227622	     -6.09927463	     21.47349166	     -6.78047981	    157.06373236	      0.20741539	      1.86323552	    -43.28094200	    -23.93883304
      3.07272727	      1.82382770	     -3.47847453	     97.70969349	      0.16846770	      0.48951017	      1.00418003	      5.50655928	      1.61078316	    -13.02960930	      5.54060542	      0.09670181	     31.13169050	     14.42375990	      0.00000000	      6.34758001	     -0.82623724	     16.59048341	      5.52057469	      0.09635220	     26.16783117	    -15.12703502	      0.00000000	     -0.07256810	      0.24659992	      0.59763343	     -0.13476622	      0.32797790	      0.63498551	     -0.11922213	      0.59958306	      0.63498551	     -0.08293808	      0.59958306	      0.52292925	     -0.06738674	      0.50286657	      0.48557716	     -0.04146541	      0.38198328	      0.44822507	     -0.51834667	      2.78958766	      3.32385782	      0.00000000	      0.00000000	     14.73967358	     -2.91926358	      0.11997539	      4.77722153	    -22.67736419	     28.83138611	     39.91197047	     81.81551300	     -4.73251615	     -5.90133851	     21.09062461	     -7.00062918	    153.82401313	      0.22555566	      1.83476267	    -27.17857568	    -24.10927437
      3.09090909	      1.43745745	     -3.60450500	     97.77666548	      0.16948451	      0.48754558	      1.00260407	      5.42510282	      1.27029018	    -12.97764191	      5.52104136	      0.09636035	     31.34615377	     14.16984819	      0.00000000	      6.26026340	     -0.49368094	     17.03328385	      5.33467737	      0.09310768	     26.32443553	    -15.37204984	      0.00000000	     -0.06721581	      0.18108990	      0.42930476	     -0.12482649	      0.24084957	      0.45613631	     -0.11042886	      0.44030199	      0.45613631	     -0.07682095	      0.44030199	      0.37564166	     -0.06241660	      0.36927853	      0.34881012	     -0.03840712	      0.28050826	      0.32197857	     -0.48011584	      2.04852519	      2.38766428	      0.00000000	      0.00000000	     15.60997096	     -2.30303759	      1.00437375	      6.69541404	    -21.96245843	     34.59353608	     36.96598736	     85.82867206	     -7.14088125	     -5.67971613	     20.38585110	     -7.80361752	    155.47074768	      0.23623761	      2.17281246	    -21.25517387	    -23.71748090
      3.10909091	      1.04290290	     -3.72300263	     97.74560088	      0.17092661	      0.48557768	      1.00144508	      5.41936433	      0.94685729	    -12.80669981	      5.55385860	      0.09693312	     31.74623417	     13.88083617	      0.00000000	      6.19379926	     -0.17608250	     17.47876412	      5.17757115	      0.09036566	     26.43242096	    -15.70325333	      0.00000000	     -0.07159183	      0.10312009	      0.26509179	     -0.13295319	      0.13714972	      0.28166002	     -0.11761822	      0.25072619	      0.28166002	     -0.08182230	      0.25072619	      0.23195531	     -0.06648017	      0.21028249	      0.21538708	     -0.04090757	      0.15973302	      0.19881884	     -0.51137329	      1.16651509	      1.47436098	      0.00000000	      0.00000000	     16.53587256	     -1.63493465	      1.35989941	      8.71723347	    -21.12683491	     41.36513165	     34.24310586	     86.95032855	     -8.43205206	     -4.72594976	     19.75153028	     -8.54756175	    158.32035942	      0.24203147	      3.04090358	    -19.42728915	    -22.84578863
      3.12727273	      0.66491985	     -3.85912810	     97.70994305	      0.17238396	      0.48373984	      1.00066649	      5.49761985	      0.63300862	    -12.69013271	      5.61056132	      0.09792277	     32.29782207	     13.72462646	      0.00000000	      6.19506142	      0.13370559	     17.85551762	      5.07206841	      0.08852429	     26.58476791	    -15.91390882	      0.00000000	     -0.07598218	      0.02325945	      0.12571645	     -0.14110651	      0.03093507	      0.13357373	     -0.12483113	      0.05655303	      0.13357373	     -0.08684004	      0.05655303	      0.11000190	     -0.07055706	      0.04743067	      0.10214462	     -0.04341622	      0.03602889	      0.09428734	     -0.54273315	      0.26311557	      0.69919720	      0.00000000	      0.00000000	     17.48147623	     -0.91804575	      1.40136712	     10.26147529	    -20.10252239	     47.02686691	     31.95705183	     87.28830084	     -8.70625261	     -3.80358424	     19.23283147	     -9.08817771	    162.00496953	      0.24529332	      5.02895733	    -20.99968348	    -20.95687768
      3.14545455	      0.36903182	     -3.96153373	     97.67815348	      0.17368973	      0.48222589	      1.00029304	      5.59528050	      0.39093138	    -12.75356282	      5.66380195	      0.09885199	     32.91456999	     13.81808820	      0.00000000	      6.21868061	      0.36731252	     18.21331354	      5.01386641	      0.08750848	     26.75014722	    -16.01354393	      0.00000000	     -0.08615409	     -0.04301765	      0.03090513	     -0.15999676	     -0.05721348	      0.03283671	     -0.14154255	     -0.10459313	      0.03283671	     -0.09846551	     -0.10459313	      0.02704199	     -0.08000269	     -0.08772160	      0.02511042	     -0.04922845	     -0.06663435	      0.02317885	     -0.61539003	     -0.48662432	      0.17188509	      0.00000000	      0.00000000	     18.33211060	     -0.33291008	      1.25072320	     11.08851940	    -19.13124853	     50.36881743	     30.36333936	     87.38840053	     -7.97295067	     -3.07153477	     18.93025959	     -9.40883198	    165.41650824	      0.24852049	      7.90169007	    -22.90051767	    -18.34748418
      3.16363636	      0.14199015	     -4.06046405	     97.66600025	      0.17476991	      0.48103896	      1.00010310	      5.72001014	      0.20012844	    -12.97458975	      5.71887901	      0.09981327	     33.54280291	     14.12367090	      0.00000000	      6.26711773	      0.54726019	     18.54148401	      4.98257305	      0.08696230	     26.84813619	    -16.11080128	      0.00000000	     -0.09304017	     -0.09693581	     -0.02471187	     -0.17278489	     -0.12892463	     -0.02625636	     -0.15285569	     -0.23568974	     -0.02625636	     -0.10633561	     -0.23568974	     -0.02162288	     -0.08639710	     -0.19767151	     -0.02007839	     -0.05316315	     -0.15015358	     -0.01853390	     -0.66457661	     -1.09655732	     -0.13744000	      0.00000000	      0.00000000	     19.07283823	      0.14088525	      0.95898769	     11.22365343	    -18.29311342	     51.33024541	     29.41081246	     87.15153022	     -6.86222117	     -2.68706173	     18.77966516	     -9.55388090	    168.46219123	      0.24884822	     12.10105654	    -24.98905916	    -15.09041666
      3.18181818	     -0.03567926	     -4.10940921	     97.65948418	      0.17564288	      0.48022001	      1.00018362	      5.82510165	      0.04387260	    -13.22195102	      5.80547926	      0.10132473	     34.09189568	     14.46837900	      0.00000000	      6.32041282	      0.69312154	     18.78304095	      5.03078392	      0.08780374	     26.95808653	    -16.12996458	      0.00000000	     -0.10506637	     -0.13788058	     -0.05132005	     -0.19511876	     -0.18338118	     -0.05452755	     -0.17261354	     -0.33524285	     -0.05452755	     -0.12008036	     -0.33524285	     -0.04490504	     -0.09756463	     -0.28116608	     -0.04169754	     -0.06003492	     -0.21357702	     -0.03849004	     -0.75047858	     -1.55973273	     -0.28542672	      0.00000000	      0.00000000	     19.57168126	      0.51592275	      0.71145041	     10.91957594	    -17.62197586	     50.24598951	     28.93892720	     86.59124927	     -5.23879921	     -2.39289602	     18.84103020	     -9.59465755	    171.28525781	      0.24593881	     17.31781896	    -26.59912921	    -11.69577055
      3.20000000	     -0.09798776	     -4.17773186	     97.61820426	      0.17609713	      0.47966597	      1.00054257	      6.01235853	     -0.06233512	    -13.92428778	      5.98751142	      0.10450179	     34.52078970	     15.39651025	      0.00000000	      6.42297138	      0.74552466	     18.88795698	      5.08251217	      0.08870657	     27.07503217	    -16.03775026	      0.00000000	     -0.11093923	     -0.15686012	     -0.05827522	     -0.20602524	     -0.20862395	     -0.06191742	     -0.18226205	     -0.38138969	     -0.06191742	     -0.12679244	     -0.38138969	     -0.05099082	     -0.10301816	     -0.31986915	     -0.04734862	     -0.06339067	     -0.24297632	     -0.04370642	     -0.79242779	     -1.77443301	     -0.32410930	      0.00000000	      0.00000000	     19.99943257	      0.53680405	      0.33537808	     10.45791200	    -17.23890088	     48.38313534	     28.96936648	     86.31327104	     -4.40655800	     -1.89866948	     19.03851616	     -9.35753916	    170.37183850	      0.24332819	     28.58707668	    -27.74333704	     -7.42172409
